<svg xmlns="http://www.w3.org/2000/svg" viewBox="0 0 256 256" width="256" height="256"><defs><radialGradient id="ambSH" cx="0.5" cy="0.5" r="0.62"><stop offset="0" stop-color="#ffffff" stop-opacity="0.20"/><stop offset="0.60" stop-color="#ffffff" stop-opacity="0.05"/><stop offset="1" stop-color="#000000" stop-opacity="0.13"/></radialGradient><radialGradient id="shSH" cx="0.5" cy="0.5" r="0.5"><stop offset="0.55" stop-color="#000000" stop-opacity="0.26"/><stop offset="1" stop-color="#000000" stop-opacity="0"/></radialGradient></defs><ellipse cx="128.0" cy="134.0" rx="115.0" ry="105.0" fill="url(#shSH)"/><rect x="20.5" y="46.5" width="45" height="167" rx="22" fill="#463414"/><rect x="22.0" y="48" width="42" height="164" rx="20" fill="#4A4238"/><rect x="26.0" y="55.0" width="34" height="7" rx="3.5" fill="#3A342C"/><rect x="28.0" y="55.8" width="30" height="2" rx="1" fill="#FFFFFF" opacity="0.13"/><rect x="26.0" y="78.4" width="34" height="7" rx="3.5" fill="#3A342C"/><rect x="28.0" y="79.2" width="30" height="2" rx="1" fill="#FFFFFF" opacity="0.13"/><rect x="26.0" y="101.9" width="34" height="7" rx="3.5" fill="#3A342C"/><rect x="28.0" y="102.7" width="30" height="2" rx="1" fill="#FFFFFF" opacity="0.13"/><rect x="26.0" y="125.3" width="34" height="7" rx="3.5" fill="#3A342C"/><rect x="28.0" y="126.1" width="30" height="2" rx="1" fill="#FFFFFF" opacity="0.13"/><rect x="26.0" y="148.7" width="34" height="7" rx="3.5" fill="#3A342C"/><rect x="28.0" y="149.5" width="30" height="2" rx="1" fill="#FFFFFF" opacity="0.13"/><rect x="26.0" y="172.1" width="34" height="7" rx="3.5" fill="#3A342C"/><rect x="28.0" y="172.9" width="30" height="2" rx="1" fill="#FFFFFF" opacity="0.13"/><rect x="26.0" y="195.6" width="34" height="7" rx="3.5" fill="#3A342C"/><rect x="28.0" y="196.4" width="30" height="2" rx="1" fill="#FFFFFF" opacity="0.13"/><rect x="24.0" y="50" width="38" height="160" rx="18" fill="none" stroke="#FFFFFF" stroke-width="1.6" opacity="0.10"/><rect x="190.5" y="46.5" width="45" height="167" rx="22" fill="#463414"/><rect x="192.0" y="48" width="42" height="164" rx="20" fill="#4A4238"/><rect x="196.0" y="55.0" width="34" height="7" rx="3.5" fill="#3A342C"/><rect x="198.0" y="55.8" width="30" height="2" rx="1" fill="#FFFFFF" opacity="0.13"/><rect x="196.0" y="78.4" width="34" height="7" rx="3.5" fill="#3A342C"/><rect x="198.0" y="79.2" width="30" height="2" rx="1" fill="#FFFFFF" opacity="0.13"/><rect x="196.0" y="101.9" width="34" height="7" rx="3.5" fill="#3A342C"/><rect x="198.0" y="102.7" width="30" height="2" rx="1" fill="#FFFFFF" opacity="0.13"/><rect x="196.0" y="125.3" width="34" height="7" rx="3.5" fill="#3A342C"/><rect x="198.0" y="126.1" width="30" height="2" rx="1" fill="#FFFFFF" opacity="0.13"/><rect x="196.0" y="148.7" width="34" height="7" rx="3.5" fill="#3A342C"/><rect x="198.0" y="149.5" width="30" height="2" rx="1" fill="#FFFFFF" opacity="0.13"/><rect x="196.0" y="172.1" width="34" height="7" rx="3.5" fill="#3A342C"/><rect x="198.0" y="172.9" width="30" height="2" rx="1" fill="#FFFFFF" opacity="0.13"/><rect x="196.0" y="195.6" width="34" height="7" rx="3.5" fill="#3A342C"/><rect x="198.0" y="196.4" width="30" height="2" rx="1" fill="#FFFFFF" opacity="0.13"/><rect x="194.0" y="50" width="38" height="160" rx="18" fill="none" stroke="#FFFFFF" stroke-width="1.6" opacity="0.10"/><rect x="59.5" y="33.5" width="137" height="193" rx="38.5" fill="#463414"/><rect x="62.0" y="36" width="132" height="188" rx="36" fill="#B4863A"/><rect x="65.0" y="39" width="126" height="182" rx="33" fill="#D8A64E"/><rect x="74.5" y="51.5" width="107" height="156" rx="26.5" fill="#463414" opacity="0.30"/><rect x="76.0" y="53" width="104" height="153" rx="25" fill="#E6BE7C"/><rect x="76.0" y="53" width="104" height="153" rx="25" fill="none" stroke="#F7EEDC" stroke-width="1.6" opacity="0.30"/><rect x="83.0" y="98.9" width="90" height="2.4" rx="1.2" fill="#463414" opacity="0.22"/><rect x="83.0" y="160.1" width="90" height="2.4" rx="1.2" fill="#463414" opacity="0.22"/><circle cx="86.0" cy="60.4" r="3.6" fill="#EED3A0" opacity="0.75"/><circle cx="86.0" cy="199.6" r="3.6" fill="#EED3A0" opacity="0.75"/><circle cx="170.0" cy="60.4" r="3.6" fill="#EED3A0" opacity="0.75"/><circle cx="170.0" cy="199.6" r="3.6" fill="#EED3A0" opacity="0.75"/><rect x="66.5" y="40.5" width="123" height="179" rx="31.5" fill="none" stroke="#F7EEDC" stroke-width="2" opacity="0.22"/><rect x="101.0" y="188" width="54" height="26" rx="10" fill="#7A6234" opacity="0.45"/><rect x="107.0" y="193" width="42" height="3.6" rx="1.8" fill="#463414" opacity="0.45"/><rect x="107.0" y="200" width="42" height="3.6" rx="1.8" fill="#463414" opacity="0.45"/><rect x="107.0" y="207" width="42" height="3.6" rx="1.8" fill="#463414" opacity="0.45"/></svg>