<svg xmlns="http://www.w3.org/2000/svg" viewBox="0 0 256 256" width="256" height="256"><defs><radialGradient id="ambSH" cx="0.5" cy="0.5" r="0.62"><stop offset="0" stop-color="#ffffff" stop-opacity="0.20"/><stop offset="0.60" stop-color="#ffffff" stop-opacity="0.05"/><stop offset="1" stop-color="#000000" stop-opacity="0.13"/></radialGradient><radialGradient id="shSH" cx="0.5" cy="0.5" r="0.5"><stop offset="0.55" stop-color="#000000" stop-opacity="0.26"/><stop offset="1" stop-color="#000000" stop-opacity="0"/></radialGradient></defs><circle cx="128.0" cy="190" r="25" fill="none" stroke="#27384F" stroke-width="9"/><path d="M128.0 190 m-19 0 a19 19 0 0 1 38 0" fill="none" stroke="#5FC6D8" stroke-width="6" stroke-linecap="round" transform="rotate(0 128.0 190)" stroke-dasharray="20 40"/><path d="M128.0 190 m-19 0 a19 19 0 0 1 38 0" fill="none" stroke="#9C8CC4" stroke-width="6" stroke-linecap="round" transform="rotate(90 128.0 190)" stroke-dasharray="20 40"/><path d="M128.0 190 m-19 0 a19 19 0 0 1 38 0" fill="none" stroke="#E09070" stroke-width="6" stroke-linecap="round" transform="rotate(180 128.0 190)" stroke-dasharray="20 40"/><path d="M128.0 190 m-19 0 a19 19 0 0 1 38 0" fill="none" stroke="#9DB47C" stroke-width="6" stroke-linecap="round" transform="rotate(270 128.0 190)" stroke-dasharray="20 40"/></svg>