<svg xmlns="http://www.w3.org/2000/svg" viewBox="0 0 256 256" width="256" height="256"><defs><radialGradient id="ambSH" cx="0.5" cy="0.5" r="0.62"><stop offset="0" stop-color="#ffffff" stop-opacity="0.20"/><stop offset="0.60" stop-color="#ffffff" stop-opacity="0.05"/><stop offset="1" stop-color="#000000" stop-opacity="0.13"/></radialGradient><radialGradient id="shSH" cx="0.5" cy="0.5" r="0.5"><stop offset="0.55" stop-color="#000000" stop-opacity="0.26"/><stop offset="1" stop-color="#000000" stop-opacity="0"/></radialGradient></defs><circle cx="128.0" cy="134.0" r="52" fill="#413015" opacity="0.55"/><circle cx="128.0" cy="134.0" r="48" fill="#A78349"/><circle cx="128.0" cy="134.0" r="44" fill="#D7B98B"/><circle cx="128.0" cy="134.0" r="44" fill="none" stroke="#F4E9D6" stroke-width="1.8" opacity="0.35"/><circle cx="128.0" cy="134.0" r="31" fill="#C7A265"/><circle cx="128.0" cy="134.0" r="31" fill="none" stroke="#413015" stroke-width="2" opacity="0.30"/><circle cx="160.9" cy="153.0" r="3" fill="#E5D0AA" opacity="0.8"/><circle cx="128.0" cy="172.0" r="3" fill="#E5D0AA" opacity="0.8"/><circle cx="95.1" cy="153.0" r="3" fill="#E5D0AA" opacity="0.8"/><circle cx="95.1" cy="115.0" r="3" fill="#E5D0AA" opacity="0.8"/><circle cx="128.0" cy="96.0" r="3" fill="#E5D0AA" opacity="0.8"/><circle cx="160.9" cy="115.0" r="3" fill="#E5D0AA" opacity="0.8"/><rect x="92.0" y="70.0" width="72" height="82" rx="28" fill="#6E5638"/><rect x="99.0" y="77.0" width="58" height="68" rx="22" fill="#D7B98B"/><circle cx="128.0" cy="110.0" r="18" fill="#C7A265"/><circle cx="128.0" cy="110.0" r="10" fill="#5FC6D8"/><rect x="108.0" y="172.0" width="40" height="52" rx="14" fill="#6E5638"/><circle cx="128.0" cy="212.0" r="14" fill="#D7B98B"/><circle cx="128.0" cy="212.0" r="7" fill="#5FC6D8"/></svg>