<svg xmlns="http://www.w3.org/2000/svg" viewBox="0 0 256 256" width="256" height="256"><defs><radialGradient id="ambSH" cx="0.5" cy="0.5" r="0.62"><stop offset="0" stop-color="#ffffff" stop-opacity="0.20"/><stop offset="0.60" stop-color="#ffffff" stop-opacity="0.05"/><stop offset="1" stop-color="#000000" stop-opacity="0.13"/></radialGradient><radialGradient id="shSH" cx="0.5" cy="0.5" r="0.5"><stop offset="0.55" stop-color="#000000" stop-opacity="0.26"/><stop offset="1" stop-color="#000000" stop-opacity="0"/></radialGradient></defs><ellipse cx="128.0" cy="134.0" rx="107.0" ry="97.0" fill="url(#shSH)"/><rect x="28.5" y="54.5" width="39" height="151" rx="19" fill="#463414"/><rect x="30.0" y="56" width="36" height="148" rx="17" fill="#4A4238"/><rect x="34.0" y="63.0" width="28" height="7" rx="3.5" fill="#3A342C"/><rect x="36.0" y="63.8" width="24" height="2" rx="1" fill="#FFFFFF" opacity="0.13"/><rect x="34.0" y="84.1" width="28" height="7" rx="3.5" fill="#3A342C"/><rect x="36.0" y="84.9" width="24" height="2" rx="1" fill="#FFFFFF" opacity="0.13"/><rect x="34.0" y="105.3" width="28" height="7" rx="3.5" fill="#3A342C"/><rect x="36.0" y="106.1" width="24" height="2" rx="1" fill="#FFFFFF" opacity="0.13"/><rect x="34.0" y="126.4" width="28" height="7" rx="3.5" fill="#3A342C"/><rect x="36.0" y="127.2" width="24" height="2" rx="1" fill="#FFFFFF" opacity="0.13"/><rect x="34.0" y="147.6" width="28" height="7" rx="3.5" fill="#3A342C"/><rect x="36.0" y="148.4" width="24" height="2" rx="1" fill="#FFFFFF" opacity="0.13"/><rect x="34.0" y="168.7" width="28" height="7" rx="3.5" fill="#3A342C"/><rect x="36.0" y="169.5" width="24" height="2" rx="1" fill="#FFFFFF" opacity="0.13"/><rect x="34.0" y="189.9" width="28" height="7" rx="3.5" fill="#3A342C"/><rect x="36.0" y="190.7" width="24" height="2" rx="1" fill="#FFFFFF" opacity="0.13"/><rect x="32.0" y="58" width="32" height="144" rx="15" fill="none" stroke="#FFFFFF" stroke-width="1.6" opacity="0.10"/><rect x="188.5" y="54.5" width="39" height="151" rx="19" fill="#463414"/><rect x="190.0" y="56" width="36" height="148" rx="17" fill="#4A4238"/><rect x="194.0" y="63.0" width="28" height="7" rx="3.5" fill="#3A342C"/><rect x="196.0" y="63.8" width="24" height="2" rx="1" fill="#FFFFFF" opacity="0.13"/><rect x="194.0" y="84.1" width="28" height="7" rx="3.5" fill="#3A342C"/><rect x="196.0" y="84.9" width="24" height="2" rx="1" fill="#FFFFFF" opacity="0.13"/><rect x="194.0" y="105.3" width="28" height="7" rx="3.5" fill="#3A342C"/><rect x="196.0" y="106.1" width="24" height="2" rx="1" fill="#FFFFFF" opacity="0.13"/><rect x="194.0" y="126.4" width="28" height="7" rx="3.5" fill="#3A342C"/><rect x="196.0" y="127.2" width="24" height="2" rx="1" fill="#FFFFFF" opacity="0.13"/><rect x="194.0" y="147.6" width="28" height="7" rx="3.5" fill="#3A342C"/><rect x="196.0" y="148.4" width="24" height="2" rx="1" fill="#FFFFFF" opacity="0.13"/><rect x="194.0" y="168.7" width="28" height="7" rx="3.5" fill="#3A342C"/><rect x="196.0" y="169.5" width="24" height="2" rx="1" fill="#FFFFFF" opacity="0.13"/><rect x="194.0" y="189.9" width="28" height="7" rx="3.5" fill="#3A342C"/><rect x="196.0" y="190.7" width="24" height="2" rx="1" fill="#FFFFFF" opacity="0.13"/><rect x="192.0" y="58" width="32" height="144" rx="15" fill="none" stroke="#FFFFFF" stroke-width="1.6" opacity="0.10"/><rect x="66.5" y="41.5" width="123" height="177" rx="34.5" fill="#463414"/><rect x="69.0" y="44" width="118" height="172" rx="32" fill="#B4863A"/><rect x="72.0" y="47" width="112" height="166" rx="29" fill="#D8A64E"/><rect x="81.5" y="59.5" width="93" height="140" rx="22.5" fill="#463414" opacity="0.30"/><rect x="83.0" y="61" width="90" height="137" rx="21" fill="#E6BE7C"/><rect x="83.0" y="61" width="90" height="137" rx="21" fill="none" stroke="#F7EEDC" stroke-width="1.6" opacity="0.30"/><rect x="90.0" y="102.1" width="76" height="2.4" rx="1.2" fill="#463414" opacity="0.22"/><rect x="90.0" y="156.9" width="76" height="2.4" rx="1.2" fill="#463414" opacity="0.22"/><circle cx="93.0" cy="66.4" r="3.6" fill="#EED3A0" opacity="0.75"/><circle cx="93.0" cy="193.6" r="3.6" fill="#EED3A0" opacity="0.75"/><circle cx="163.0" cy="66.4" r="3.6" fill="#EED3A0" opacity="0.75"/><circle cx="163.0" cy="193.6" r="3.6" fill="#EED3A0" opacity="0.75"/><rect x="73.5" y="48.5" width="109" height="163" rx="27.5" fill="none" stroke="#F7EEDC" stroke-width="2" opacity="0.22"/><rect x="97.0" y="48" width="62" height="15" rx="7.5" fill="#F7EEDC" opacity="0.42"/><rect x="104.0" y="51" width="48" height="5" rx="2.5" fill="#F5A83A" opacity="0.55"/><rect x="101.0" y="180" width="54" height="26" rx="10" fill="#7A6234" opacity="0.45"/><rect x="107.0" y="185" width="42" height="3.6" rx="1.8" fill="#463414" opacity="0.45"/><rect x="107.0" y="192" width="42" height="3.6" rx="1.8" fill="#463414" opacity="0.45"/><rect x="107.0" y="199" width="42" height="3.6" rx="1.8" fill="#463414" opacity="0.45"/><circle cx="128.0" cy="134.0" r="48" fill="#463414" opacity="0.55"/><circle cx="128.0" cy="134.0" r="44" fill="#B4863A"/><circle cx="128.0" cy="134.0" r="40" fill="#E6BE7C"/><circle cx="128.0" cy="134.0" r="40" fill="none" stroke="#F7EEDC" stroke-width="1.8" opacity="0.35"/><circle cx="128.0" cy="134.0" r="27" fill="#D8A64E"/><circle cx="128.0" cy="134.0" r="27" fill="none" stroke="#463414" stroke-width="2" opacity="0.30"/><circle cx="157.4" cy="151.0" r="3" fill="#EED3A0" opacity="0.8"/><circle cx="128.0" cy="168.0" r="3" fill="#EED3A0" opacity="0.8"/><circle cx="98.6" cy="151.0" r="3" fill="#EED3A0" opacity="0.8"/><circle cx="98.6" cy="117.0" r="3" fill="#EED3A0" opacity="0.8"/><circle cx="128.0" cy="100.0" r="3" fill="#EED3A0" opacity="0.8"/><circle cx="157.4" cy="117.0" r="3" fill="#EED3A0" opacity="0.8"/><rect x="112.0" y="25" width="32" height="114" rx="11" fill="#463414"/><rect x="115.5" y="29" width="25" height="106" rx="9" fill="#D8A64E"/><rect x="124.0" y="33" width="8" height="98" rx="4" fill="#F7EEDC" opacity="0.22"/><rect x="106.0" y="19" width="44" height="23" rx="10" fill="#463414"/><rect x="110.0" y="22" width="36" height="16" rx="7.5" fill="#B4863A"/><rect x="119.0" y="52" width="18" height="6.5" rx="3.2" fill="#F5A83A"/><rect x="69.0" y="44" width="118" height="172" rx="32" fill="url(#ambSH)"/></svg>